<svg aria-hidden="true" style="position:absolute;width:0;height:0;overflow:hidden" xmlns="http://www.w3.org/2000/svg">
  <defs>
    <symbol id="arrow" viewBox="0 0 512 512">
      <path d="M145.34 31.0055C138.696 30.8823 132.177 32.8274 126.686 36.5717C121.196 40.3159 117.005 45.6742 114.693 51.905C112.381 58.1359 112.063 64.9311 113.783 71.3506C115.503 77.77 119.176 83.4961 124.293 87.7365L320.13 255.389L124.172 423.042C120.592 425.652 117.592 428.976 115.361 432.803C113.13 436.631 111.717 440.879 111.21 445.28C110.704 449.681 111.115 454.14 112.418 458.374C113.721 462.608 115.888 466.526 118.781 469.881C121.675 473.236 125.232 475.954 129.229 477.865C133.226 479.776 137.576 480.837 142.004 480.983C146.432 481.128 150.841 480.354 154.955 478.709C159.069 477.065 162.797 474.585 165.904 471.427L389.925 279.945C393.448 276.935 396.277 273.198 398.217 268.99C400.156 264.783 401.161 260.204 401.161 255.571C401.161 250.938 400.156 246.359 398.217 242.151C396.277 237.944 393.448 234.206 389.925 231.197L165.904 39.1099C160.227 34.056 152.939 31.1836 145.34 31.0055Z"/>
    </symbol>
  </defs>
</svg>